# Blender v2.79 (sub 0) OBJ File: ''
# www.blender.org
mtllib Cookie.mtl
o pCylinder15_Untitled
v 0.013009 0.254607 -0.088598
v 0.011820 0.254615 -0.090961
v 0.009885 0.254588 -0.092854
v 0.007499 0.254569 -0.094190
v 0.004831 0.254556 -0.094805
v 0.001920 0.254572 -0.094721
v -0.000445 0.254579 -0.093451
v -0.002071 0.254581 -0.091090
v -0.003373 0.254585 -0.088780
v -0.003763 0.254606 -0.086040
v -0.003258 0.254600 -0.083304
v -0.002043 0.254592 -0.080949
v -0.000144 0.254588 -0.079089
v 0.002259 0.254586 -0.077872
v 0.004885 0.254588 -0.077430
v 0.007507 0.254584 -0.077891
v 0.009875 0.254585 -0.079120
v 0.011832 0.254588 -0.080950
v 0.013172 0.254576 -0.083228
v 0.013496 0.254578 -0.085910
v 0.004883 0.253647 -0.085988
v 0.012999 0.254180 -0.088601
v 0.012850 0.253815 -0.088555
v 0.012510 0.253669 -0.088439
v 0.011807 0.254187 -0.090964
v 0.011679 0.253822 -0.090876
v 0.011393 0.253677 -0.090657
v 0.009882 0.254165 -0.092855
v 0.009791 0.253801 -0.092732
v 0.009579 0.253652 -0.092433
v 0.007499 0.254149 -0.094175
v 0.007453 0.253787 -0.094017
v 0.007340 0.253637 -0.093668
v 0.004837 0.254136 -0.094778
v 0.004842 0.253774 -0.094603
v 0.004839 0.253624 -0.094237
v 0.001947 0.254152 -0.094666
v 0.002019 0.253789 -0.094475
v 0.002134 0.253638 -0.094129
v -0.000418 0.254158 -0.093404
v -0.000304 0.253795 -0.093238
v -0.000087 0.253644 -0.092937
v -0.002056 0.254160 -0.091071
v -0.001925 0.253797 -0.090971
v -0.001636 0.253646 -0.090766
v -0.003351 0.254162 -0.088760
v -0.003191 0.253799 -0.088699
v -0.002849 0.253651 -0.088591
v -0.003742 0.254181 -0.086027
v -0.003576 0.253816 -0.086021
v -0.003217 0.253671 -0.086029
v -0.003251 0.254175 -0.083308
v -0.003102 0.253811 -0.083359
v -0.002755 0.253664 -0.083473
v -0.002033 0.254169 -0.080957
v -0.001905 0.253805 -0.081051
v -0.001615 0.253656 -0.081261
v -0.000137 0.254166 -0.079095
v -0.000044 0.253802 -0.079220
v 0.000166 0.253652 -0.079513
v 0.002259 0.254164 -0.077877
v 0.002307 0.253800 -0.078026
v 0.002419 0.253650 -0.078374
v 0.004885 0.254166 -0.077434
v 0.004885 0.253803 -0.077591
v 0.004885 0.253652 -0.077960
v 0.007507 0.254162 -0.077894
v 0.007460 0.253799 -0.078041
v 0.007346 0.253648 -0.078390
v 0.009875 0.254162 -0.079119
v 0.009785 0.253799 -0.079243
v 0.009570 0.253650 -0.079540
v 0.011822 0.254165 -0.080955
v 0.011692 0.253801 -0.081049
v 0.011396 0.253654 -0.081266
v 0.013163 0.254154 -0.083234
v 0.013006 0.253791 -0.083289
v 0.012650 0.253643 -0.083407
v 0.013485 0.254157 -0.085917
v 0.013322 0.253794 -0.085924
v 0.012952 0.253644 -0.085926
v 0.012831 0.255091 -0.088526
v 0.011676 0.255102 -0.090829
v 0.009769 0.255065 -0.092680
v 0.007433 0.255041 -0.094007
v 0.004820 0.255027 -0.094624
v 0.001959 0.255044 -0.094579
v -0.000346 0.255052 -0.093325
v -0.001925 0.255054 -0.091000
v -0.003199 0.255062 -0.088738
v -0.003584 0.255090 -0.086064
v -0.003069 0.255080 -0.083365
v -0.001889 0.255069 -0.081058
v -0.000033 0.255064 -0.079248
v 0.002322 0.255060 -0.078067
v 0.004885 0.255062 -0.077639
v 0.007442 0.255058 -0.078089
v 0.009752 0.255062 -0.079292
v 0.011671 0.255068 -0.081070
v 0.012977 0.255052 -0.083291
v 0.013295 0.255052 -0.085904
v 0.011771 0.255667 -0.088132
v 0.010784 0.255678 -0.090101
v 0.009112 0.255625 -0.091698
v 0.007063 0.255576 -0.092876
v 0.004796 0.255563 -0.093466
v 0.002322 0.255576 -0.093491
v 0.000354 0.255588 -0.092365
v -0.001025 0.255593 -0.090383
v -0.002108 0.255637 -0.088401
v -0.002464 0.255695 -0.086123
v -0.001987 0.255667 -0.083736
v -0.000963 0.255618 -0.081729
v 0.000630 0.255609 -0.080183
v 0.002679 0.255599 -0.079194
v 0.004885 0.255598 -0.078841
v 0.007072 0.255598 -0.079227
v 0.009061 0.255628 -0.080266
v 0.010719 0.255650 -0.081782
v 0.011829 0.255618 -0.083677
v 0.012109 0.255605 -0.085904
v 0.008830 0.256097 -0.087192
v 0.008270 0.256097 -0.088304
v 0.004883 0.256327 -0.085988
v 0.007322 0.256066 -0.089207
v 0.006138 0.256031 -0.089807
v 0.004877 0.256022 -0.090033
v 0.003603 0.256023 -0.089886
v 0.002479 0.256032 -0.089308
v 0.001571 0.256080 -0.088397
v 0.000935 0.256153 -0.087313
v 0.000739 0.256180 -0.086050
v 0.000955 0.256162 -0.084738
v 0.001537 0.256095 -0.083577
v 0.002456 0.256045 -0.082692
v 0.003619 0.256030 -0.082152
v 0.004884 0.256031 -0.081973
v 0.006139 0.256062 -0.082178
v 0.007279 0.256108 -0.082754
v 0.008175 0.256123 -0.083640
v 0.008751 0.256113 -0.084749
v 0.008970 0.256093 -0.085974
vt 0.713048 0.569223
vt 0.681229 0.631670
vt 0.500000 0.500000
vt 0.631671 0.681229
vt 0.569223 0.713047
vt 0.500000 0.724011
vt 0.430777 0.713047
vt 0.368330 0.681229
vt 0.318771 0.631670
vt 0.286953 0.569223
vt 0.275989 0.500000
vt 0.286953 0.430777
vt 0.318771 0.368329
vt 0.368330 0.318771
vt 0.430777 0.286953
vt 0.500000 0.275989
vt 0.569223 0.286953
vt 0.631671 0.318771
vt 0.681229 0.368330
vt 0.713047 0.430777
vt 0.724011 0.500000
vt 0.951557 0.646720
vt 0.884118 0.779078
vt 0.884118 0.779078
vt 0.951557 0.646720
vt 0.779078 0.884117
vt 0.779078 0.884117
vt 0.646720 0.951557
vt 0.646720 0.951557
vt 0.500000 0.974795
vt 0.500000 0.974795
vt 0.353280 0.951557
vt 0.353280 0.951557
vt 0.220922 0.884117
vt 0.220922 0.884117
vt 0.115883 0.779078
vt 0.115883 0.779078
vt 0.048443 0.646720
vt 0.048443 0.646720
vt 0.025205 0.500000
vt 0.025205 0.500000
vt 0.048443 0.353280
vt 0.048443 0.353280
vt 0.115883 0.220922
vt 0.115883 0.220922
vt 0.220922 0.115883
vt 0.220922 0.115883
vt 0.353280 0.048443
vt 0.353280 0.048443
vt 0.500000 0.025205
vt 0.500000 0.025205
vt 0.646720 0.048443
vt 0.646720 0.048443
vt 0.779078 0.115883
vt 0.779078 0.115883
vt 0.884117 0.220922
vt 0.884117 0.220922
vt 0.951557 0.353280
vt 0.951557 0.353280
vt 0.974795 0.500000
vt 0.974795 0.500000
vt 0.860581 0.761977
vt 0.923889 0.637730
vt 0.500000 0.500000
vt 0.761978 0.860581
vt 0.637730 0.923888
vt 0.500000 0.945702
vt 0.362270 0.923888
vt 0.238023 0.860581
vt 0.139419 0.761977
vt 0.076112 0.637730
vt 0.054298 0.500000
vt 0.076112 0.362270
vt 0.139419 0.238023
vt 0.238023 0.139419
vt 0.362270 0.076112
vt 0.500000 0.054298
vt 0.637730 0.076112
vt 0.761977 0.139419
vt 0.860581 0.238023
vt 0.923888 0.362270
vt 0.945702 0.500000
vt 0.943453 0.644087
vt 0.877224 0.774069
vt 0.774069 0.877224
vt 0.644087 0.943453
vt 0.500000 0.966274
vt 0.355913 0.943453
vt 0.225931 0.877224
vt 0.122776 0.774069
vt 0.056547 0.644086
vt 0.033726 0.500000
vt 0.056547 0.355913
vt 0.122776 0.225931
vt 0.225931 0.122776
vt 0.355913 0.056547
vt 0.500000 0.033726
vt 0.644087 0.056547
vt 0.774069 0.122776
vt 0.877224 0.225931
vt 0.943453 0.355913
vt 0.966274 0.500000
vt 0.874510 0.772097
vt 0.940263 0.643050
vt 0.772098 0.874510
vt 0.643050 0.940263
vt 0.500000 0.962920
vt 0.356950 0.940263
vt 0.227903 0.874510
vt 0.125490 0.772097
vt 0.059737 0.643050
vt 0.037080 0.500000
vt 0.059737 0.356950
vt 0.125490 0.227903
vt 0.227903 0.125490
vt 0.356950 0.059737
vt 0.500000 0.037080
vt 0.643050 0.059737
vt 0.772097 0.125490
vt 0.874510 0.227903
vt 0.940263 0.356950
vt 0.962920 0.500000
vt 0.820122 0.732582
vt 0.876327 0.622276
vt 0.732583 0.820122
vt 0.622276 0.876326
vt 0.500000 0.895693
vt 0.377724 0.876326
vt 0.267418 0.820122
vt 0.179878 0.732582
vt 0.123674 0.622276
vt 0.104307 0.500000
vt 0.123674 0.377724
vt 0.179878 0.267418
vt 0.267418 0.179878
vt 0.377724 0.123674
vt 0.500000 0.104307
vt 0.622276 0.123674
vt 0.732582 0.179878
vt 0.820122 0.267418
vt 0.876326 0.377724
vt 0.895693 0.500000
vn 0.1144 0.9931 -0.0256
vn 0.0843 0.9935 -0.0766
vn 0.0020 1.0000 -0.0030
vn 0.0513 0.9926 -0.1104
vn 0.0291 0.9924 -0.1195
vn 0.0087 0.9930 -0.1175
vn -0.0236 0.9940 -0.1066
vn -0.0613 0.9938 -0.0929
vn -0.0832 0.9922 -0.0925
vn -0.1061 0.9919 -0.0694
vn -0.1194 0.9928 -0.0025
vn -0.1079 0.9922 0.0617
vn -0.0829 0.9917 0.0979
vn -0.0570 0.9923 0.1095
vn -0.0314 0.9927 0.1164
vn -0.0051 0.9925 0.1219
vn 0.0220 0.9920 0.1247
vn 0.0574 0.9920 0.1122
vn 0.0965 0.9925 0.0748
vn 0.1209 0.9922 0.0289
vn 0.1258 0.9921 0.0030
vn 0.9290 -0.2014 -0.3104
vn 0.7911 -0.1944 -0.5800
vn 0.7884 0.2021 -0.5810
vn 0.9312 0.1949 -0.3079
vn 0.5870 -0.1961 -0.7854
vn 0.5839 0.2085 -0.7846
vn 0.3489 -0.2149 -0.9122
vn 0.3518 0.1946 -0.9156
vn 0.0849 -0.2535 -0.9636
vn 0.0928 0.1546 -0.9836
vn -0.2434 -0.2922 -0.9248
vn -0.2484 0.1192 -0.9613
vn -0.6398 -0.2853 -0.7136
vn -0.6653 0.1213 -0.7367
vn -0.8191 -0.2481 -0.5171
vn -0.8378 0.1480 -0.5256
vn -0.9229 -0.2330 -0.3065
vn -0.9359 0.1613 -0.3133
vn -0.9754 -0.2197 0.0196
vn -0.9839 0.1774 0.0211
vn -0.9272 -0.2073 0.3119
vn -0.9298 0.1913 0.3144
vn -0.7876 -0.2043 0.5813
vn -0.7892 0.1931 0.5830
vn -0.5710 -0.2008 0.7960
vn -0.5696 0.1987 0.7975
vn -0.3076 -0.1967 0.9310
vn -0.3058 0.2101 0.9286
vn 0.0031 -0.1947 0.9809
vn 0.0036 0.2164 0.9763
vn 0.3138 -0.1912 0.9301
vn 0.3129 0.2191 0.9242
vn 0.5679 -0.1924 0.8003
vn 0.5639 0.2164 0.7970
vn 0.7650 -0.2032 0.6112
vn 0.7635 0.2079 0.6114
vn 0.9264 -0.2127 0.3106
vn 0.9284 0.2030 0.3113
vn 0.9774 -0.2092 -0.0304
vn 0.9795 0.1993 -0.0277
vn 0.0379 -0.9990 -0.0235
vn 0.0385 -0.9990 -0.0209
vn -0.0000 -1.0000 0.0005
vn 0.0308 -0.9991 -0.0283
vn 0.0194 -0.9992 -0.0352
vn 0.0029 -0.9993 -0.0368
vn -0.0141 -0.9991 -0.0392
vn -0.0303 -0.9991 -0.0308
vn -0.0319 -0.9993 -0.0188
vn -0.0414 -0.9991 -0.0089
vn -0.0433 -0.9991 0.0032
vn -0.0410 -0.9991 0.0107
vn -0.0354 -0.9991 0.0234
vn -0.0255 -0.9991 0.0336
vn -0.0132 -0.9991 0.0397
vn -0.0002 -0.9991 0.0430
vn 0.0130 -0.9991 0.0397
vn 0.0247 -0.9992 0.0329
vn 0.0313 -0.9991 0.0271
vn 0.0394 -0.9991 0.0153
vn 0.0402 -0.9992 -0.0064
vn 0.6873 -0.6882 -0.2324
vn 0.5883 -0.6849 -0.4299
vn 0.4350 -0.6907 -0.5776
vn 0.2585 -0.6961 -0.6698
vn 0.0613 -0.7069 -0.7047
vn -0.1798 -0.7123 -0.6784
vn -0.4729 -0.7071 -0.5257
vn -0.5997 -0.7046 -0.3794
vn -0.6858 -0.6921 -0.2250
vn -0.7215 -0.6922 0.0154
vn -0.6860 -0.6905 0.2292
vn -0.5854 -0.6868 0.4309
vn -0.4244 -0.6863 0.5907
vn -0.2275 -0.6887 0.6884
vn 0.0021 -0.6881 0.7256
vn 0.2313 -0.6889 0.6869
vn 0.4189 -0.6908 0.5894
vn 0.5611 -0.6954 0.4490
vn 0.6809 -0.6959 0.2283
vn 0.7179 -0.6957 -0.0252
vn 0.5122 0.7681 -0.3843
vn 0.6138 0.7657 -0.1924
vn 0.3648 0.7811 -0.5067
vn 0.2204 0.7848 -0.5792
vn 0.0662 0.7767 -0.6264
vn -0.1563 0.7679 -0.6212
vn -0.4325 0.7643 -0.4784
vn -0.5417 0.7678 -0.3421
vn -0.6215 0.7528 -0.2168
vn -0.6552 0.7553 0.0126
vn -0.6109 0.7625 0.2129
vn -0.5124 0.7686 0.3829
vn -0.3631 0.7764 0.5152
vn -0.1907 0.7852 0.5892
vn 0.0032 0.7896 0.6136
vn 0.1963 0.7885 0.5828
vn 0.3553 0.7833 0.5102
vn 0.4891 0.7795 0.3915
vn 0.5962 0.7782 0.1971
vn 0.6320 0.7749 -0.0093
vn 0.2081 0.9643 -0.1637
vn 0.2585 0.9635 -0.0697
vn 0.1387 0.9659 -0.2186
vn 0.0818 0.9677 -0.2386
vn 0.0260 0.9702 -0.2410
vn -0.0543 0.9708 -0.2337
vn -0.1568 0.9707 -0.1824
vn -0.2033 0.9676 -0.1494
vn -0.2537 0.9611 -0.1087
vn -0.2796 0.9601 0.0002
vn -0.2564 0.9610 0.1035
vn -0.2076 0.9627 0.1734
vn -0.1433 0.9654 0.2178
vn -0.0745 0.9672 0.2427
vn -0.0003 0.9672 0.2539
vn 0.0748 0.9655 0.2496
vn 0.1442 0.9638 0.2243
vn 0.2096 0.9636 0.1658
vn 0.2572 0.9632 0.0782
vn 0.2688 0.9632 0.0027
usemtl lambert12
s 1
f 122/1/1 123/2/2 124/3/3
f 123/2/2 125/4/4 124/3/3
f 125/4/4 126/5/5 124/3/3
f 126/5/5 127/6/6 124/3/3
f 127/6/6 128/7/7 124/3/3
f 128/7/7 129/8/8 124/3/3
f 129/8/8 130/9/9 124/3/3
f 130/9/9 131/10/10 124/3/3
f 131/10/10 132/11/11 124/3/3
f 132/11/11 133/12/12 124/3/3
f 133/12/12 134/13/13 124/3/3
f 134/13/13 135/14/14 124/3/3
f 135/14/14 136/15/15 124/3/3
f 136/15/15 137/16/16 124/3/3
f 137/16/16 138/17/17 124/3/3
f 138/17/17 139/18/18 124/3/3
f 139/18/18 140/19/19 124/3/3
f 140/19/19 141/20/20 124/3/3
f 141/20/20 142/21/21 124/3/3
f 142/21/21 122/1/1 124/3/3
f 22/22/22 25/23/23 2/24/24 1/25/25
f 25/23/23 28/26/26 3/27/27 2/24/24
f 28/26/26 31/28/28 4/29/29 3/27/27
f 31/28/28 34/30/30 5/31/31 4/29/29
f 34/30/30 37/32/32 6/33/33 5/31/31
f 37/32/32 40/34/34 7/35/35 6/33/33
f 40/34/34 43/36/36 8/37/37 7/35/35
f 43/36/36 46/38/38 9/39/39 8/37/37
f 46/38/38 49/40/40 10/41/41 9/39/39
f 49/40/40 52/42/42 11/43/43 10/41/41
f 52/42/42 55/44/44 12/45/45 11/43/43
f 55/44/44 58/46/46 13/47/47 12/45/45
f 58/46/46 61/48/48 14/49/49 13/47/47
f 61/48/48 64/50/50 15/51/51 14/49/49
f 64/50/50 67/52/52 16/53/53 15/51/51
f 67/52/52 70/54/54 17/55/55 16/53/53
f 70/54/54 73/56/56 18/57/57 17/55/55
f 73/56/56 76/58/58 19/59/59 18/57/57
f 76/58/58 79/60/60 20/61/61 19/59/59
f 79/60/60 22/22/22 1/25/25 20/61/61
f 27/62/62 24/63/63 21/64/64
f 30/65/65 27/62/62 21/64/64
f 33/66/66 30/65/65 21/64/64
f 36/67/67 33/66/66 21/64/64
f 39/68/68 36/67/67 21/64/64
f 42/69/69 39/68/68 21/64/64
f 45/70/70 42/69/69 21/64/64
f 48/71/71 45/70/70 21/64/64
f 51/72/72 48/71/71 21/64/64
f 54/73/73 51/72/72 21/64/64
f 57/74/74 54/73/73 21/64/64
f 60/75/75 57/74/74 21/64/64
f 63/76/76 60/75/75 21/64/64
f 66/77/77 63/76/76 21/64/64
f 69/78/78 66/77/77 21/64/64
f 72/79/79 69/78/78 21/64/64
f 75/80/80 72/79/79 21/64/64
f 78/81/81 75/80/80 21/64/64
f 81/82/82 78/81/81 21/64/64
f 24/63/63 81/82/82 21/64/64
f 22/22/22 23/83/83 26/84/84 25/23/23
f 23/83/83 24/63/63 27/62/62 26/84/84
f 25/23/23 26/84/84 29/85/85 28/26/26
f 26/84/84 27/62/62 30/65/65 29/85/85
f 28/26/26 29/85/85 32/86/86 31/28/28
f 29/85/85 30/65/65 33/66/66 32/86/86
f 31/28/28 32/86/86 35/87/87 34/30/30
f 32/86/86 33/66/66 36/67/67 35/87/87
f 34/30/30 35/87/87 38/88/88 37/32/32
f 35/87/87 36/67/67 39/68/68 38/88/88
f 37/32/32 38/88/88 41/89/89 40/34/34
f 38/88/88 39/68/68 42/69/69 41/89/89
f 40/34/34 41/89/89 44/90/90 43/36/36
f 41/89/89 42/69/69 45/70/70 44/90/90
f 43/36/36 44/90/90 47/91/91 46/38/38
f 44/90/90 45/70/70 48/71/71 47/91/91
f 46/38/38 47/91/91 50/92/92 49/40/40
f 47/91/91 48/71/71 51/72/72 50/92/92
f 49/40/40 50/92/92 53/93/93 52/42/42
f 50/92/92 51/72/72 54/73/73 53/93/93
f 52/42/42 53/93/93 56/94/94 55/44/44
f 53/93/93 54/73/73 57/74/74 56/94/94
f 55/44/44 56/94/94 59/95/95 58/46/46
f 56/94/94 57/74/74 60/75/75 59/95/95
f 58/46/46 59/95/95 62/96/96 61/48/48
f 59/95/95 60/75/75 63/76/76 62/96/96
f 61/48/48 62/96/96 65/97/97 64/50/50
f 62/96/96 63/76/76 66/77/77 65/97/97
f 64/50/50 65/97/97 68/98/98 67/52/52
f 65/97/97 66/77/77 69/78/78 68/98/98
f 67/52/52 68/98/98 71/99/99 70/54/54
f 68/98/98 69/78/78 72/79/79 71/99/99
f 70/54/54 71/99/99 74/100/100 73/56/56
f 71/99/99 72/79/79 75/80/80 74/100/100
f 73/56/56 74/100/100 77/101/101 76/58/58
f 74/100/100 75/80/80 78/81/81 77/101/101
f 76/58/58 77/101/101 80/102/102 79/60/60
f 77/101/101 78/81/81 81/82/82 80/102/102
f 24/63/63 23/83/83 80/102/102 81/82/82
f 23/83/83 22/22/22 79/60/60 80/102/102
f 1/25/25 2/24/24 83/103/103 82/104/104
f 2/24/24 3/27/27 84/105/105 83/103/103
f 3/27/27 4/29/29 85/106/106 84/105/105
f 4/29/29 5/31/31 86/107/107 85/106/106
f 5/31/31 6/33/33 87/108/108 86/107/107
f 6/33/33 7/35/35 88/109/109 87/108/108
f 7/35/35 8/37/37 89/110/110 88/109/109
f 8/37/37 9/39/39 90/111/111 89/110/110
f 9/39/39 10/41/41 91/112/112 90/111/111
f 10/41/41 11/43/43 92/113/113 91/112/112
f 11/43/43 12/45/45 93/114/114 92/113/113
f 12/45/45 13/47/47 94/115/115 93/114/114
f 13/47/47 14/49/49 95/116/116 94/115/115
f 14/49/49 15/51/51 96/117/117 95/116/116
f 15/51/51 16/53/53 97/118/118 96/117/117
f 16/53/53 17/55/55 98/119/119 97/118/118
f 17/55/55 18/57/57 99/120/120 98/119/119
f 18/57/57 19/59/59 100/121/121 99/120/120
f 19/59/59 20/61/61 101/122/122 100/121/121
f 20/61/61 1/25/25 82/104/104 101/122/122
f 82/104/104 83/103/103 103/123/123 102/124/124
f 83/103/103 84/105/105 104/125/125 103/123/123
f 84/105/105 85/106/106 105/126/126 104/125/125
f 85/106/106 86/107/107 106/127/127 105/126/126
f 86/107/107 87/108/108 107/128/128 106/127/127
f 87/108/108 88/109/109 108/129/129 107/128/128
f 88/109/109 89/110/110 109/130/130 108/129/129
f 89/110/110 90/111/111 110/131/131 109/130/130
f 90/111/111 91/112/112 111/132/132 110/131/131
f 91/112/112 92/113/113 112/133/133 111/132/132
f 92/113/113 93/114/114 113/134/134 112/133/133
f 93/114/114 94/115/115 114/135/135 113/134/134
f 94/115/115 95/116/116 115/136/136 114/135/135
f 95/116/116 96/117/117 116/137/137 115/136/136
f 96/117/117 97/118/118 117/138/138 116/137/137
f 97/118/118 98/119/119 118/139/139 117/138/138
f 98/119/119 99/120/120 119/140/140 118/139/139
f 99/120/120 100/121/121 120/141/141 119/140/140
f 100/121/121 101/122/122 121/142/142 120/141/141
f 101/122/122 82/104/104 102/124/124 121/142/142
f 102/124/124 103/123/123 123/2/2 122/1/1
f 103/123/123 104/125/125 125/4/4 123/2/2
f 104/125/125 105/126/126 126/5/5 125/4/4
f 105/126/126 106/127/127 127/6/6 126/5/5
f 106/127/127 107/128/128 128/7/7 127/6/6
f 107/128/128 108/129/129 129/8/8 128/7/7
f 108/129/129 109/130/130 130/9/9 129/8/8
f 109/130/130 110/131/131 131/10/10 130/9/9
f 110/131/131 111/132/132 132/11/11 131/10/10
f 111/132/132 112/133/133 133/12/12 132/11/11
f 112/133/133 113/134/134 134/13/13 133/12/12
f 113/134/134 114/135/135 135/14/14 134/13/13
f 114/135/135 115/136/136 136/15/15 135/14/14
f 115/136/136 116/137/137 137/16/16 136/15/15
f 116/137/137 117/138/138 138/17/17 137/16/16
f 117/138/138 118/139/139 139/18/18 138/17/17
f 118/139/139 119/140/140 140/19/19 139/18/18
f 119/140/140 120/141/141 141/20/20 140/19/19
f 120/141/141 121/142/142 142/21/21 141/20/20
f 121/142/142 102/124/124 122/1/1 142/21/21
